HIERARCHY
ROOT Hips
{
  OFFSET 90.7885 88.945 -76.2838
  CHANNELS 6 Xposition Yposition Zposition Zrotation Xrotation Yrotation
  JOINT LeftUpLeg
  {
    OFFSET 8.64259 1.95398 -2.38835
    CHANNELS 3 Zrotation Xrotation Yrotation
    JOINT LeftLeg
    {
      OFFSET 43.7702 0 0
      CHANNELS 3 Zrotation Xrotation Yrotation
      JOINT LeftFoot
      {
        OFFSET 40.6238 0 0
        CHANNELS 3 Zrotation Xrotation Yrotation
        JOINT LeftToeBase
        {
          OFFSET 12.7242 0 0
          CHANNELS 3 Zrotation Xrotation Yrotation
          End Site
          {
            OFFSET 0 0 0
          }
        }
      }
    }
  }
  JOINT RightUpLeg
  {
    OFFSET -8.2249 1.95398 -2.59336
    CHANNELS 3 Zrotation Xrotation Yrotation
    JOINT RightLeg
    {
      OFFSET 43.5653 0 0
      CHANNELS 3 Zrotation Xrotation Yrotation
      JOINT RightFoot
      {
        OFFSET 40.6238 0 0
        CHANNELS 3 Zrotation Xrotation Yrotation
        JOINT RightToeBase
        {
          OFFSET 12.7242 0 0
          CHANNELS 3 Zrotation Xrotation Yrotation
          End Site
          {
            OFFSET 0 0 0
          }
        }
      }
    }
  }
  JOINT Spine
  {
    OFFSET 0.165834 0.87714 6.61349
    CHANNELS 3 Zrotation Xrotation Yrotation
    JOINT Spine1
    {
      OFFSET 7.38963 1.71661e-005 0
      CHANNELS 3 Zrotation Xrotation Yrotation
      JOINT Spine2
      {
        OFFSET 11.9445 1.14441e-005 0
        CHANNELS 3 Zrotation Xrotation Yrotation
        JOINT Spine3
        {
          OFFSET 14.7254 4.19617e-005 0
          CHANNELS 3 Zrotation Xrotation Yrotation
          JOINT Spine4
          {
            OFFSET 10.9679 0 0
            CHANNELS 3 Zrotation Xrotation Yrotation
            JOINT RightShoulder
            {
              OFFSET 2.46616 -1.6653 3.69651
              CHANNELS 3 Zrotation Xrotation Yrotation
              JOINT RightArm
              {
                OFFSET 13.0012 0 0
                CHANNELS 3 Zrotation Xrotation Yrotation
                JOINT RightForeArm
                {
                  OFFSET 28.7848 1.52588e-005 0
                  CHANNELS 3 Zrotation Xrotation Yrotation
                  JOINT RightHand
                  {
                    OFFSET 26.5688 1.52588e-005 0
                    CHANNELS 3 Zrotation Xrotation Yrotation
                    End Site
                    {
                      OFFSET 0 0 0
                    }
                  }
                }
              }
            }
            JOINT LeftShoulder
            {
              OFFSET 2.38034 -1.29275 -3.7523
              CHANNELS 3 Zrotation Xrotation Yrotation
              JOINT LeftArm
              {
                OFFSET 16.3182 6.10352e-005 0
                CHANNELS 3 Zrotation Xrotation Yrotation
                JOINT LeftForeArm
                {
                  OFFSET 27.0901 0 0
                  CHANNELS 3 Zrotation Xrotation Yrotation
                  JOINT LeftHand
                  {
                    OFFSET 24.5451 1.52588e-005 0
                    CHANNELS 3 Zrotation Xrotation Yrotation
                    End Site
                    {
                      OFFSET 0 0 0
                    }
                  }
                }
              }
            }
            JOINT Neck
            {
              OFFSET 5.0226 -0.0266342 0
              CHANNELS 3 Zrotation Xrotation Yrotation
              JOINT Head
              {
                OFFSET 6.69363 2.86102e-005 0
                CHANNELS 3 Zrotation Xrotation Yrotation
                End Site
                {
                  OFFSET 0 0 0
                }
              }
            }
          }
        }
      }
    }
  }
}
MOTION
Frames:	18
Frame Time:	0.0416667
-316.828 87.9483 292.303 97.1338 32.994 90.8713 -178.539 -26.1014 86.4148 -9.43222 -8.43345 1.40661 85.6343 7.71345 -2.58386 23.5206 2.87551 -2.9368 -179.495 23.7392 102.266 -14.2458 -16.3502 -1.35164 69.4683 -4.73254 -2.50846 25.1804 -1.6176 4.30583 0.560621 8.27967 -90.8265 10.3173 0.738903 -1.7055 -1.35463 0.663143 -1.73636 -23.8849 1.21726 -1.40467 -3.87227 1.21728 -1.40467 89.4448 -34.271 -106.257 37.0322 -6.75729 8.12156 3.89475 -22.5285 -11.7358 -21.9707 -0.651428 -7.60031 -88.8782 -51.4156 80.6804 -13.5197 4.51698 -39.5171 14.3526 9.57536 -25.7546 2.40602 -0.217673 -7.41651 7.1814 0.357084 -12.1625 -5.191 2.7202 3.08225 
-311.426 88.3969 287.143 98.4518 46.1422 89.2612 -169.548 -24.0953 98.6091 -18.3108 13.6426 -0.334061 80.2998 8.99555 0.777799 35.7497 3.51206 -7.3739 176.809 26.1884 98.752 -23.9925 -10.1832 0.308796 61.2993 -0.384651 -4.61674 24.0129 -1.64884 4.53503 -0.869682 8.18209 -91.0988 10.4877 -2.23642 -1.98218 -1.18249 -2.32146 -1.88183 -23.7153 -1.53745 -2.56246 -3.70265 -1.53748 -2.56247 89.977 -33.5112 -105.528 38.2047 -5.06997 9.33479 6.26549 -21.3987 -6.11471 -20.773 -1.1003 -4.43952 -89.2167 -52.9944 80.4856 -14.6068 7.32731 -38.1151 13.8564 11.3628 -24.0439 2.03102 -0.220357 -7.74105 7.7188 0.703054 -8.86334 -5.95539 2.46886 1.75388 
-304.894 88.6075 281.067 99.3095 48.3052 89.2255 -167.944 -19.0859 101.525 -33.0581 19.9489 1.9949 66.5303 3.65255 1.95072 37.0754 7.16923 -13.0007 175.58 25.5193 98.9571 -33.7057 -7.42466 1.15038 61.58 -0.563573 -1.16263 20.3521 -0.488078 2.65859 -0.973914 7.99472 -91.2665 10.8546 -2.52422 -2.28367 -0.815773 -2.62227 -2.17038 -23.3453 -1.72154 -2.93641 -3.33261 -1.72154 -2.9364 89.8009 -32.9909 -106.043 39.4179 -3.30736 10.5725 6.68635 -19.1244 -4.20745 -18.9497 -0.556579 -7.49153 -89.398 -53.1055 80.2398 -15.4167 13.7668 -33.6629 10.901 14.4012 -18.9895 -1.38215 -0.127022 -8.12401 6.32521 0.516771 -6.92528 -6.59787 1.77877 1.84299 
-299.249 89.0406 275.775 102.277 48.6465 87.8526 -167.796 -8.65499 103.3 -53.5764 24.0171 4.50779 54.9049 -1.32035 0.875662 23.0146 7.68296 -9.08835 175.091 20.4916 100.13 -38.6674 -8.25863 1.61426 68.384 -4.00506 -3.80949 20.3399 -0.3708 2.4372 -0.727852 8.19758 -91.2422 10.4532 -2.01945 -2.29 -1.21804 -2.11827 -2.19893 -23.7427 -1.23815 -2.79075 -3.73008 -1.23818 -2.79075 89.4418 -33.9629 -106.371 39.7095 -4.85934 8.43528 6.21207 -19.7152 -6.68496 -19.1511 -0.579259 -7.45646 -89.1629 -51.646 80.3062 -17.4238 17.8138 -30.87 6.01225 16.0231 -9.91785 0.38314 -0.0775319 -4.77508 6.89781 -0.494281 -7.71518 -6.74651 0.950031 2.47282 
-294.809 89.9429 271.434 101.746 50.8821 87.6087 -171.29 7.06004 101.327 -68.6094 17.5232 5.73846 62.0953 1.82276 0.374186 12.8759 5.89927 -4.09219 174.55 16.0289 99.4489 -37.9797 -6.5822 1.82224 72.9476 -5.96663 -3.26326 21.949 -0.47802 2.39118 -0.584328 8.20092 -91.1854 10.4506 -1.70735 -2.20469 -1.22095 -1.80273 -2.12743 -23.7447 -0.966116 -2.61565 -3.73204 -0.966084 -2.61564 89.3159 -33.4844 -106.78 38.3492 -7.32453 4.10358 3.97746 -22.8407 -11.8883 -21.3694 -0.601668 -8.08411 -89.4169 -53.6245 80.3177 -19.3253 16.6442 -25.658 3.7848 12.0233 -3.47881 1.54937 -0.135905 -5.69532 5.75337 -1.75899 -7.07125 -5.45582 -0.450686 1.98796 
-290.411 91.3371 266.925 100.743 48.647 85.7546 -172.628 18.1605 95.9657 -67.8295 9.60849 3.33816 69.4216 5.086 1.43618 13.0182 3.48242 -1.46223 175.109 10.5545 97.4859 -35.3387 -8.49036 -0.121975 75.7972 -6.79227 -2.82251 22.8437 -0.370953 2.02594 -0.00280368 8.20061 -90.7564 10.4667 -0.352489 -1.47076 -1.20507 -0.416852 -1.45383 -23.7334 0.105787 -1.50869 -3.72076 0.105812 -1.50869 88.9704 -33.4401 -107.445 35.1585 -9.0596 -0.911418 1.50071 -23.5371 -17.0748 -21.9328 -0.472938 -9.1463 -88.7721 -54.0558 81.3239 -21.7514 13.9393 -16.4405 5.1468 7.61408 -5.29315 -2.75521 -0.0826909 -8.71405 3.2875 -2.88468 -7.86892 -3.84193 -1.5428 1.37947 
-285.647 92.4027 261.801 99.7746 46.8168 85.1006 -174.301 25.1016 93.2513 -54.9922 2.4998 0.893398 70.7506 5.71746 -0.37542 15.1882 1.87508 -0.0983905 174.782 3.44994 95.1163 -30.4309 -8.35736 -1.22859 79.1845 -7.37453 1.86176 21.2723 -0.0346845 1.61977 0.51557 8.22144 -90.4968 10.4346 0.799243 -1.05915 -1.23658 0.751845 -1.0933 -23.7718 1.08059 -0.770002 -3.75914 1.08061 -0.769992 89.0577 -31.8515 -107.88 32.1979 -9.50456 -6.15746 -0.794609 -22.98 -21.4913 -27.446 -0.787896 -6.72582 -88.2955 -54.7081 82.1172 -20.8931 11.5823 -7.74754 5.94562 2.10969 -8.35672 -2.38893 -0.0922887 -7.11052 1.7063 -3.57018 -6.68907 -3.19562 -2.47802 -1.22475 
-280.809 92.2475 256.149 99.1066 45.1541 84.6116 -176.699 26.8291 91.5133 -33.6919 -1.32411 -0.825978 66.5672 4.37756 -2.9547 19.3683 -1.18394 3.03341 173.068 -3.35565 93.0767 -26.4803 -12.4791 -1.14282 82.3032 -9.07146 1.6378 21.4395 0.565348 0.395698 0.925541 8.2505 -90.3284 10.3791 1.69357 -0.799921 -1.29108 1.65673 -0.8737 -23.8347 1.85564 -0.253806 -3.82207 1.85566 -0.253805 88.3 -30.7546 -109.791 27.2304 -9.35121 -10.4923 -2.90649 -23.1197 -24.9263 -29.2312 -1.05633 -5.5247 -88.054 -56.6286 82.777 -17.5364 8.67939 0.451971 7.03935 1.16151 -12.2618 -1.88207 -0.0846034 -6.06049 1.46973 -3.86343 -4.71746 -2.38893 -3.08421 -2.98228 
-275.381 91.1496 250.078 99.1523 43.5588 84.4905 -178.595 23.5611 91.4212 -8.4201 0.937094 -0.967196 60.2903 2.67504 -2.89706 19.5632 0.17491 1.27202 171.375 -10.609 90.4565 -22.8547 -15.7286 -1.19026 84.8957 -10.7025 1.47856 22.5777 0.518295 0.255172 1.27832 8.32938 -90.266 10.2243 2.4256 -0.735078 -1.44464 2.39089 -0.84118 -23.998 2.53432 0.0283605 -3.98532 2.5343 0.0283507 87.7747 -29.7454 -111.253 21.6812 -8.55593 -15.6322 -3.76062 -25.1862 -25.4366 -22.6909 -0.429348 -9.96071 -87.6438 -56.4966 83.3294 -16.175 4.5751 5.85229 7.95329 -0.604284 -11.6707 -1.35787 -0.085107 -4.89803 1.84806 -4.46843 -3.7028 -1.83253 -3.83464 -3.47937 
-269.156 89.1184 243.252 99.0114 40.7949 84.5287 -178.83 25.3478 91.7308 -9.12882 -3.32459 -2.15741 63.8831 3.3114 -4.52543 18.3401 -3.87879 6.39747 168.553 -17.1954 86.6198 -21.4851 -20.6605 -1.28234 87.1174 -12.6328 0.528421 24.728 -0.270799 1.47719 1.71767 8.34426 -90.2022 10.1993 3.33033 -0.68343 -1.46767 3.29701 -0.829492 -24.037 3.38158 0.350232 -4.02436 3.38158 0.350236 88.2524 -29.0285 -110.628 19.2686 -6.22631 -19.235 -6.93785 -34.816 -26.977 -20.2694 -1.12733 -9.39981 -86.8736 -56.0081 84.335 -15.4015 3.64006 8.00667 7.81891 -2.10883 -7.68874 -1.8122 -0.0880211 -3.63979 4.12613 -4.95005 -3.25909 -3.6837 -4.24268 -3.64718 
-262.362 89.0398 235.636 98.2529 38.0896 83.2111 -177.853 25.3537 89.5193 -16.3277 -2.17067 -2.45978 55.8776 -0.196186 -3.42022 18.8567 -2.41171 4.55088 165.169 -20.3154 80.7969 -22.9611 -25.449 -2.75964 78.6788 -9.68403 -2.10078 37.1944 -2.78941 6.12869 1.97063 8.37446 -89.8804 10.1318 3.98134 -0.09833 -1.53306 3.97314 -0.273743 -24.1149 3.82653 1.10457 -4.1022 3.82652 1.10458 88.7457 -28.3985 -109.924 21.1002 -5.08207 -21.2693 -6.63218 -30.3141 -26.9696 -24.4488 -0.885752 -8.73007 -87.1653 -54.2023 83.6535 -17.6839 3.18759 7.31318 7.96793 -1.8629 -3.16468 -1.99292 -0.0835523 -2.67038 7.26809 -5.32657 -4.82008 -5.52382 -4.14397 -3.49654 
-255.544 89.5803 228.159 98.0765 37.2191 81.7416 -175.529 25.7524 87.3654 -28.1974 2.12248 -4.25225 61.6345 1.26038 -1.15363 9.05553 -0.967816 3.89265 167.349 -16.2794 80.1581 -38.0558 -24.1338 -6.07631 65.2026 -2.86131 -2.76508 41.4099 -4.76435 11.6184 1.66679 8.10766 -89.6336 10.6552 3.48817 0.410457 -1.01112 3.50283 0.256347 -23.5786 3.20339 1.44084 -3.56592 3.20338 1.44084 87.7281 -28.8362 -111.752 24.5691 -7.47876 -19.3202 -5.79811 -30.5202 -27.0183 -23.0695 -0.654235 -10.4606 -86.9983 -54.9173 84.0001 -19.163 4.75101 8.80153 7.09564 -3.99842 -3.34097 -2.62223 -0.0937603 -2.88345 5.94945 -4.00872 -5.03078 -6.75677 -2.81438 -4.05768 
-250.005 90.4001 221.702 99.4369 36.3571 78.6996 -174.712 21.5913 84.5733 -34.3023 2.30045 -5.36475 68.5041 4.03785 1.3471 10.0166 0.882747 1.81824 171.054 -5.97346 78.6833 -58.3833 -22.478 -6.87226 54.1927 2.13551 -0.521449 23.3776 -2.65755 6.69917 1.33055 8.13304 -89.3466 10.5956 2.95054 1.03261 -1.07235 2.99311 0.901645 -23.6249 2.50376 1.872 -3.61221 2.50376 1.872 87.7549 -31.08 -110.705 26.4862 -11.5098 -18.176 -7.43645 -34.7471 -29.2544 -19.6623 -0.758545 -12.4974 -87.341 -53.7912 83.3358 -20.9684 7.17252 3.25489 6.47301 -0.284542 -2.74812 -4.28898 -0.0860931 -4.63503 4.33674 -3.38419 -8.03499 -7.02532 -1.8819 -0.689875 
-245.001 91.5908 216.568 99.6137 35.9618 77.8959 -175.686 16.3043 83.3627 -34.3941 0.637459 -5.55482 73.009 5.52707 0.689052 11.878 0.373895 2.12195 175.712 4.15726 80.7064 -67.786 -16.5874 -6.0683 63.7894 -2.63507 -0.515511 23.9249 -2.27769 5.85727 0.887089 8.1623 -89.3523 10.5387 2.06443 1.10222 -1.13093 2.11095 1.01026 -23.6716 1.63775 1.67175 -3.65891 1.63775 1.67175 88.3239 -29.5217 -110.27 30.8713 -14.9979 -16.9486 -4.41983 -28.4985 -25.2598 -22.2016 -0.535388 -10.607 -87.1085 -54.9963 83.8552 -17.5425 9.97636 -5.7451 6.5716 6.23045 -6.86941 -3.4385 -0.0863569 -5.34758 2.22275 -1.48112 -5.27941 -7.16517 -0.55073 -1.59374 
-239.695 93.4276 211.279 100.123 35.3661 78.925 -177.033 8.64196 84.3471 -30.1161 -0.647164 -4.79823 75.245 5.92738 -0.380854 14.5482 -1.21352 3.56019 178.157 12.1512 83.9125 -63.4219 -12.2726 -5.50098 70.7683 -6.20767 -3.03183 23.5473 -2.08472 5.46924 0.616298 8.16044 -89.5426 10.5499 1.43778 0.782149 -1.12047 1.47083 0.718094 -23.6579 1.13628 1.17811 -3.64526 1.13627 1.17811 87.981 -30.3607 -110.578 34.3525 -15.9254 -11.7916 -0.834955 -25.8515 -22.0991 -27.7843 -0.627982 -8.4229 -87.1819 -54.8365 83.7261 -13.0931 9.64535 -12.9911 9.42665 10.0787 -15.3333 -0.12853 -0.111516 -5.64623 -0.710873 0.633443 -4.0264 -6.80725 1.22493 -1.46692 
-234.541 94.4418 206.923 99.3954 38.0071 80.8468 -177.936 3.51284 84.5734 -26.7617 1.22025 -2.77614 76.9145 6.27139 0.656065 14.7278 -1.52789 3.90399 177.702 18.6701 88.1333 -49.598 -6.89054 -4.01799 71.0574 -6.42783 -2.25546 20.4687 -0.133726 1.99181 0.151417 8.05787 -89.7993 10.7576 0.394092 0.362644 -0.913327 0.409695 0.344934 -23.4483 0.266887 0.464312 -3.43567 0.266906 0.464316 88.582 -30.1899 -109.477 37.9101 -15.5605 -5.40424 -0.360748 -27.0839 -21.4067 -28.4382 -0.955236 -7.01576 -87.2913 -53.4923 83.3614 -10.0734 7.21409 -18.5858 12.6803 9.13431 -24.7428 0.486348 -0.138531 -6.26595 -2.35078 1.60485 -3.44502 -6.87255 2.05083 -1.01932 
-229.065 94.4515 202.278 99.1654 41.0435 81.1034 -178.365 -1.63154 84.7105 -24.7389 2.82118 -1.49107 80.2005 7.06361 0.0307477 13.0803 -0.623246 3.06219 175.546 20.1788 89 -27.555 -9.04532 -1.91946 63.3179 -3.24288 -4.03999 24.0079 0.0471412 0.936656 -0.172989 8.05044 -89.8532 10.7733 -0.27669 0.317526 -0.89763 -0.26246 0.329388 -23.4328 -0.359329 0.219687 -3.4202 -0.359338 0.21968 89.2577 -30.4192 -108.059 40.8985 -13.847 1.15308 0.793315 -26.9767 -19.1297 -28.1063 -0.920058 -7.15024 -87.5931 -50.5601 82.432 -7.01124 5.41759 -27.0895 13.367 7.8982 -27.8669 0.358885 -0.177168 -8.00338 -1.77834 1.47655 -4.64207 -7.49992 2.03397 0.225581 
-223.129 93.6154 197.222 100.422 44.105 79.7228 -178.213 -8.99935 85.3667 -21.5697 4.94293 -0.79787 82.6865 7.85913 -1.09888 15.9218 -2.51235 4.93095 173.934 18.2846 88.6106 -7.27288 -8.10021 -1.14946 61.5608 -2.56666 -0.60337 22.6809 -2.27254 5.94797 -0.352706 8.02159 -89.839 10.8317 -0.628002 0.378985 -0.839125 -0.610714 0.406251 -23.3754 -0.712875 0.172717 -3.36271 -0.712863 0.172721 89.7113 -30.539 -107.121 43.6952 -11.0819 8.15654 3.34811 -26.3961 -14.7244 -22.3132 -0.724818 -8.35135 -88.5377 -49.4409 80.8108 -2.96624 3.90396 -34.9078 12.9582 7.47725 -27.8178 1.22231 -0.228546 -8.76577 -3.61326 0.698326 -5.4247 -6.865 1.27161 0.31897 
